<?xml version="1.0" encoding="UTF-8"?>
<svg width="45px" height="34px" viewBox="0 0 45 34" version="1.1" xmlns="http://www.w3.org/2000/svg" xmlns:xlink="http://www.w3.org/1999/xlink">
    <!-- Generator: sketchtool 58 (101010) - https://sketch.com -->
    <title>C8520FC5-4FD3-47B5-9883-A25483D3DA07</title>
    <desc>Created with sketchtool.</desc>
    <g id="Web_Design" stroke="none" stroke-width="1" fill="none" fill-rule="evenodd">
        <g id="Videos_LIst" transform="translate(-205.000000, -453.000000)" fill="#FFFFFF" fill-rule="nonzero">
            <g id="Last-news" transform="translate(180.000000, 255.000000)">
                <g id="Article-1">
                    <g id="placeholder">
                        <g id="Icon/Play" transform="translate(25.000000, 198.000000)">
                            <g id="icon_play">
                                <path d="M27.5246922,17.1240474 L19.2672846,21.7167038 C18.9232259,22.0447507 18.5791673,21.7167038 18.5791673,21.3886569 L18.5791673,12.2033441 C18.5791673,11.8752972 18.9232259,11.5472504 19.2672846,11.8752972 L27.5246922,16.4679536 C27.8687509,16.4679536 27.8687509,17.1240474 27.5246922,17.1240474 Z" id="Path"></path>
                                <path d="M26.8365749,33.1983448 L17.2029326,33.1983448 C7.56929036,33.1983448 0,25.9813133 0,17.1240474 C0,7.93873462 7.91334901,0.393656262 17.2029326,0.393656262 L27.1806336,0.393656262 C36.8142758,0.393656262 44.3835662,7.93873462 44.3835662,17.1240474 C44.3835662,25.9813133 36.4702172,33.1983448 26.8365749,33.1983448 L26.8365749,33.1983448 Z M17.2029326,4.002172 C9.63364228,4.002172 3.44058653,9.90701594 3.44058653,17.1240474 C3.44058653,24.3410789 9.63364228,29.9178759 17.2029326,29.9178759 L27.1806336,29.9178759 C34.7499239,29.9178759 40.9429797,24.3410789 40.9429797,17.1240474 C40.9429797,9.90701594 34.7499239,4.002172 27.1806336,4.002172 L17.2029326,4.002172 Z" id="Shape"></path>
                            </g>
                        </g>
                    </g>
                </g>
            </g>
        </g>
    </g>
</svg>